<svg width="20" height="20" viewBox="2 14 20 20" fill="none" xmlns="http://www.w3.org/2000/svg">
<g clip-path="url(#clip0_6075_29221)">
<path d="M5.37526 26.1613C6.74365 26.1613 7.85294 25.052 7.85294 23.6836C7.85294 22.3152 6.74365 21.2059 5.37526 21.2059C4.00688 21.2059 2.89758 22.3152 2.89758 23.6836C2.89758 25.052 4.00688 26.1613 5.37526 26.1613Z" fill="#E95521"/>
<path d="M15.6688 20.7554C17.0372 20.7554 18.1465 19.6461 18.1465 18.2777C18.1465 16.9093 17.0372 15.8 15.6688 15.8C14.3005 15.8 13.1912 16.9093 13.1912 18.2777C13.1912 19.6461 14.3005 20.7554 15.6688 20.7554Z" fill="#E95521"/>
<path d="M10.9612 30.058C9.18181 29.6751 7.6952 28.5489 6.8618 26.9271C6.20859 27.2199 5.46529 27.31 4.74451 27.1974C5.7581 29.6751 7.89792 31.4996 10.5333 32.0627C11.1189 32.1978 11.7045 32.2429 12.2902 32.2429C11.8397 31.6572 11.5919 30.9365 11.5694 30.1706C11.3667 30.1256 11.164 30.0805 10.9612 30.058Z" fill="#E95521"/>
<path d="M15.1283 32.5357C16.4967 32.5357 17.606 31.4264 17.606 30.058C17.606 28.6896 16.4967 27.5803 15.1283 27.5803C13.7599 27.5803 12.6506 28.6896 12.6506 30.058C12.6506 31.4264 13.7599 32.5357 15.1283 32.5357Z" fill="#E95521"/>
<path d="M18.5519 29.157C19.3178 28.1884 19.8584 27.0397 20.1287 25.8233C20.5791 23.7061 20.1512 21.4761 18.9574 19.6742C18.6646 20.3499 18.1916 20.913 17.5609 21.2959C18.2366 22.5573 18.4393 23.9989 18.124 25.3954C17.9663 26.0711 17.7185 26.7243 17.3582 27.31C17.9663 27.783 18.3718 28.4362 18.5519 29.157Z" fill="#E95521"/>
<path d="M5.19507 20.1472C5.26264 20.1472 5.33021 20.1472 5.37526 20.1472C5.62303 20.1472 5.8708 20.1697 6.11857 20.2373C6.52401 20.3274 6.90692 20.4851 7.24479 20.6878C8.34848 19.0886 10.1504 18.12 12.0875 18.0975C12.0875 17.9173 12.1326 17.7146 12.1551 17.5344C12.2677 16.9938 12.493 16.5208 12.8308 16.0928C9.74499 15.8225 6.72673 17.4218 5.19507 20.1472Z" fill="#E95521"/>
</g>
<defs>
<clipPath id="clip0_6075_29221">
<rect width="38" height="38" fill="white" transform="translate(0.0263672)"/>
</clipPath>
</defs>
</svg>
