<?xml version="1.0" encoding="UTF-8"?>
<svg width="16" height="16" viewBox="0 0 16 16" xmlns="http://www.w3.org/2000/svg">
  <g id="clipboard-list">
    <path d="M9 11.25H5V9.75H9V11.25Z" fill="currentColor"/>
    <path d="M11 8.25H5V6.75H11V8.25Z" fill="currentColor"/>
    <path fill-rule="evenodd" clip-rule="evenodd" d="M8 0C9.30585 0 10.4141 0.835321 10.8262 2H12.5C13.3284 2 14 2.67157 14 3.5V13.5L13.9922 13.6533C13.9154 14.4097 13.2767 15 12.5 15H3.5C2.72334 15 2.08461 14.4097 2.00781 13.6533L2 13.5V3.5C2 2.67157 2.67157 2 3.5 2H5.17383C5.58594 0.835321 6.69415 0 8 0ZM3.5 13.5H12.5V3.5H11V5H5V3.5H3.5V13.5ZM8 1.5C7.17157 1.5 6.5 2.17157 6.5 3V3.5H9.5V3C9.5 2.17157 8.82843 1.5 8 1.5Z" fill="currentColor"/>
  </g>
</svg>
