<?xml version="1.0" encoding="UTF-8"?>
<svg width="16" height="16" viewBox="0 0 16 16" xmlns="http://www.w3.org/2000/svg">
  <g id="dark-theme">
    <path fill-rule="evenodd" clip-rule="evenodd" d="M7.13375 1.05469C6.85365 1.74821 6.69826 2.50594 6.69821 3.2998C6.69834 6.61331 9.3847 9.29966 12.6982 9.2998C13.4929 9.2998 14.2511 9.14389 14.9453 8.86328C14.9206 9.06056 14.8897 9.25899 14.8476 9.45703C14.0437 13.2384 10.3263 15.6524 6.54489 14.8486C2.76373 14.0447 0.349704 10.3272 1.15328 6.5459C1.79022 3.55004 4.25641 1.41368 7.13375 1.05469ZM5.19821 3.26953C3.92127 4.02598 2.95368 5.2936 2.62106 6.85742C1.9897 9.82841 3.88644 12.7502 6.85739 13.3818C9.22903 13.8857 11.5667 12.7771 12.7353 10.7988C12.723 10.7989 12.7105 10.7998 12.6982 10.7998C8.55631 10.7997 5.19834 7.44177 5.19821 3.2998V3.26953Z" fill="currentColor"/>
  </g>
</svg>
