<?xml version="1.0" encoding="UTF-8"?>
<svg width="16" height="16" viewBox="0 0 16 16" xmlns="http://www.w3.org/2000/svg">
  <g id="image-registries">
    <path fill-rule="evenodd" clip-rule="evenodd" d="M5.5 8.5C6.60457 8.5 7.5 9.39543 7.5 10.5C7.5 11.6046 6.60457 12.5 5.5 12.5C4.39543 12.5 3.5 11.6046 3.5 10.5C3.5 9.39543 4.39543 8.5 5.5 8.5ZM5.5 10C5.22386 10 5 10.2239 5 10.5C5 10.7761 5.22386 11 5.5 11C5.77614 11 6 10.7761 6 10.5C6 10.2239 5.77614 10 5.5 10Z" fill="currentColor"/>
    <path fill-rule="evenodd" clip-rule="evenodd" d="M10.5 8.5C11.6046 8.5 12.5 9.39543 12.5 10.5C12.5 11.6046 11.6046 12.5 10.5 12.5C9.39543 12.5 8.5 11.6046 8.5 10.5C8.5 9.39543 9.39543 8.5 10.5 8.5ZM10.5 10C10.2239 10 10 10.2239 10 10.5C10 10.7761 10.2239 11 10.5 11C10.7761 11 11 10.7761 11 10.5C11 10.2239 10.7761 10 10.5 10Z" fill="currentColor"/>
    <path fill-rule="evenodd" clip-rule="evenodd" d="M10.5 3.5C11.6046 3.5 12.5 4.39543 12.5 5.5C12.5 6.60457 11.6046 7.5 10.5 7.5C9.39543 7.5 8.5 6.60457 8.5 5.5C8.5 4.39543 9.39543 3.5 10.5 3.5ZM10.5 5C10.2239 5 10 5.22386 10 5.5C10 5.77614 10.2239 6 10.5 6C10.7761 6 11 5.77614 11 5.5C11 5.22386 10.7761 5 10.5 5Z" fill="currentColor"/>
    <path fill-rule="evenodd" clip-rule="evenodd" d="M13.6533 1.00781C14.4097 1.08461 15 1.72334 15 2.5V13.5L14.9922 13.6533C14.9205 14.3593 14.3593 14.9205 13.6533 14.9922L13.5 15H2.5C1.72334 15 1.08461 14.4097 1.00781 13.6533L1 13.5V2.5C1 1.67157 1.67157 1 2.5 1H13.5L13.6533 1.00781ZM2.5 13.5H13.5V2.5H2.5V13.5Z" fill="currentColor"/>
  </g>
</svg>
