<?xml version="1.0" encoding="UTF-8"?>
<svg width="16" height="16" viewBox="0 0 16 16" xmlns="http://www.w3.org/2000/svg">
  <g id="light-theme">
    <path d="M8.75 16H7.25L7.24805 12.9434C7.49333 12.9804 7.74439 13 8 13C8.25494 13 8.50532 12.9802 8.75 12.9434V16Z" fill="currentColor"/>
    <path d="M3.97266 10.9629C4.27138 11.3683 4.62996 11.7265 5.03516 12.0254L2.87305 14.1875L1.8125 13.127L3.97266 10.9629Z" fill="currentColor"/>
    <path d="M14.1875 13.127L13.127 14.1875L10.9639 12.0264C11.3691 11.7275 11.7275 11.3691 12.0264 10.9639L14.1875 13.127Z" fill="currentColor"/>
    <path fill-rule="evenodd" clip-rule="evenodd" d="M8 4C10.2091 4 12 5.79086 12 8C12 10.2091 10.2091 12 8 12C5.79086 12 4 10.2091 4 8C4 5.79086 5.79086 4 8 4ZM8 5.5C6.61929 5.5 5.5 6.61929 5.5 8C5.5 9.38071 6.61929 10.5 8 10.5C9.38071 10.5 10.5 9.38071 10.5 8C10.5 6.61929 9.38071 5.5 8 5.5Z" fill="currentColor"/>
    <path d="M3.05566 7.24805C3.01868 7.49329 3 7.74444 3 8C3 8.25489 3.01887 8.50536 3.05566 8.75H0V7.25L3.05566 7.24805Z" fill="currentColor"/>
    <path d="M16 7.25V8.75H12.9434C12.9802 8.50532 13 8.25494 13 8C13 7.74439 12.9804 7.49333 12.9434 7.24805L16 7.25Z" fill="currentColor"/>
    <path d="M5.03516 3.97266C4.63 4.27142 4.27142 4.63 3.97266 5.03516L1.8125 2.87305L2.87305 1.8125L5.03516 3.97266Z" fill="currentColor"/>
    <path d="M14.1875 2.87305L12.0254 5.03516C11.7265 4.62996 11.3683 4.27138 10.9629 3.97266L13.127 1.8125L14.1875 2.87305Z" fill="currentColor"/>
    <path d="M8.75 3.05566C8.50536 3.01887 8.25489 3 8 3C7.74444 3 7.49329 3.01868 7.24805 3.05566L7.25 0H8.75V3.05566Z" fill="currentColor"/>
  </g>
</svg>
