<?xml version="1.0" encoding="UTF-8"?>
<svg width="16" height="16" viewBox="0 0 16 16" xmlns="http://www.w3.org/2000/svg">
  <g id="status-in-progress">
    <path d="M8 15C11.866 15 15 11.866 15 8C15 4.13401 11.866 1 8 1C4.13401 1 1 4.13401 1 8C1 11.866 4.13401 15 8 15Z" fill="currentColor"/>
<path opacity="0.5" d="M8 3.5C9.19347 3.5 10.3381 3.97411 11.182 4.81802C12.0259 5.66193 12.5 6.80653 12.5 8C12.5 9.19347 12.0259 10.3381 11.182 11.182C10.3381 12.0259 9.19347 12.5 8 12.5C6.80653 12.5 5.66193 12.0259 4.81802 11.182C3.97411 10.3381 3.5 9.19347 3.5 8C3.5 6.80653 3.97411 5.66193 4.81802 4.81802C5.66193 3.97411 6.80653 3.5 8 3.5ZM8 5C7.20435 5 6.44129 5.31607 5.87868 5.87868C5.31607 6.44129 5 7.20435 5 8C5 8.79565 5.31607 9.55871 5.87868 10.1213C6.44129 10.6839 7.20435 11 8 11C8.79565 11 9.55871 10.6839 10.1213 10.1213C10.6839 9.55871 11 8.79565 11 8C11 7.20435 10.6839 6.44129 10.1213 5.87868C9.55871 5.31607 8.79565 5 8 5Z" fill="currentColor"/>
<path fill-rule="evenodd" clip-rule="evenodd" d="M8.15007 5.004L8.11307 3.502L8.00007 3.5C8.85579 3.50032 9.69369 3.74462 10.4155 4.20426C11.1373 4.6639 11.7131 5.31981 12.0753 6.09508C12.4375 6.87036 12.5712 7.73284 12.4607 8.58139C12.3501 9.42994 11.9999 10.2294 11.4511 10.886C10.9023 11.5425 10.1777 12.029 9.36221 12.2884C8.54673 12.5477 7.67421 12.5692 6.84698 12.3502C6.01974 12.1312 5.27208 11.681 4.69168 11.0522C4.11128 10.4234 3.7222 9.64209 3.57007 8.8H5.10807C5.30258 9.49853 5.74343 10.103 6.34911 10.5017C6.95479 10.9003 7.68432 11.0662 8.40284 10.9687C9.12135 10.8711 9.78024 10.5167 10.2577 9.97098C10.7351 9.42525 10.9988 8.7251 11.0001 8C11 7.23036 10.7041 6.49018 10.1737 5.93255C9.64323 5.37492 8.91874 5.04248 8.15007 5.004Z" fill="currentColor"/>
  </g>
</svg>