<?xml version="1.0" encoding="UTF-8"?>
<svg width="16" height="16" viewBox="0 0 16 16" xmlns="http://www.w3.org/2000/svg">
  <g id="success">
    <path d="M8 1C9.85652 1 11.637 1.7375 12.9497 3.05025C14.2625 4.36301 15 6.14348 15 8C15 9.85652 14.2625 11.637 12.9497 12.9497C11.637 14.2625 9.85652 15 8 15C6.14348 15 4.36301 14.2625 3.05025 12.9497C1.7375 11.637 1 9.85652 1 8C1 6.14348 1.7375 4.36301 3.05025 3.05025C4.36301 1.7375 6.14348 1 8 1ZM10.83 4.502L6.863 9.884L5.174 8.096L4.084 9.126L7.004 12.222L12.038 5.392L10.83 4.502Z" fill="currentColor"/>
<path d="M10.83 4.50201L12.038 5.39201L7.00501 12.222L4.08301 9.12601L5.17401 8.09601L6.86301 9.88501L10.83 4.50201Z" fill="currentColor"/>
  </g>
</svg>