<?xml version="1.0" encoding="UTF-8"?>
<svg width="16" height="16" viewBox="0 0 16 16" xmlns="http://www.w3.org/2000/svg">
  <g id="table">
    <path fill-rule="evenodd" clip-rule="evenodd" d="M13.6533 1.00781C14.4097 1.08461 15 1.72334 15 2.5V13.5L14.9922 13.6533C14.9205 14.3593 14.3593 14.9205 13.6533 14.9922L13.5 15H2.5C1.72334 15 1.08461 14.4097 1.00781 13.6533L1 13.5V2.5C1 1.67157 1.67157 1 2.5 1H13.5L13.6533 1.00781ZM8.75 13.5H13.5V10.25H8.75V13.5ZM2.5 13.5H7.25V10.25H2.5V13.5ZM8.75 8.75H13.5V5.75H8.75V8.75ZM2.5 8.75H7.25V5.75H2.5V8.75ZM2.5 4.25H13.5V2.5H2.5V4.25Z" fill="currentColor"/>
  </g>
</svg>
